<svg width="32" height="32" viewBox="0 0 32 32" fill="none" xmlns="http://www.w3.org/2000/svg">
    <path
        d="M27.107 2.67999C25.0356 1.428 22.8208 0.518103 20.5052 0C20.2208 0.66419 19.8886 1.55754 19.6595 2.2682C17.198 1.78999 14.7591 1.78999 12.3429 2.2682C12.1139 1.55754 11.7741 0.66419 11.4871 0C9.16908 0.518103 6.95167 1.43134 4.88026 2.68662C0.70219 10.8427 -0.430415 18.7962 0.135889 26.6368C2.907 29.3101 5.59255 30.934 8.23277 31.9967C8.88465 30.8377 9.46605 29.6057 9.9669 28.3072C9.013 27.839 8.09937 27.2611 7.2361 26.5903C7.46512 26.3711 7.68914 26.142 7.90557 25.9062C13.1709 29.0876 18.8919 29.0876 24.0943 25.9062C24.3133 26.142 24.5373 26.3711 24.7638 26.5903C23.898 27.2644 22.9818 27.8423 22.0279 28.3105C22.5288 29.6057 23.1077 30.8411 23.7621 32C26.4048 30.9373 29.0929 29.3134 31.864 26.6368C32.5285 17.5476 30.7289 9.6671 27.107 2.67999ZM10.6842 21.8149C9.10363 21.8149 7.8074 19.9087 7.8074 17.5874C7.8074 15.2661 9.07595 13.3566 10.6842 13.3566C12.2926 13.3566 13.5887 15.2628 13.5611 17.5874C13.5636 19.9087 12.2926 21.8149 10.6842 21.8149ZM21.3157 21.8149C19.735 21.8149 18.4388 19.9087 18.4388 17.5874C18.4388 15.2661 19.7073 13.3566 21.3157 13.3566C22.9239 13.3566 24.2202 15.2628 24.1925 17.5874C24.1925 19.9087 22.9239 21.8149 21.3157 21.8149Z"
        fill="#ffffff" />
</svg>